<svg width="33" height="34" viewBox="0 0 33 34" fill="none" xmlns="http://www.w3.org/2000/svg">
<path d="M16.5 0C7.38817 0 0 7.61205 0 17C0 26.3879 7.38817 34 16.5 34C25.6118 34 33 26.3879 33 17C33 7.61205 25.6118 0 16.5 0ZM16.5 26.8661C15.686 26.8661 15.0268 26.1868 15.0268 25.3482C15.0268 24.5096 15.686 23.8304 16.5 23.8304C17.314 23.8304 17.9732 24.5096 17.9732 25.3482C17.9732 26.1868 17.314 26.8661 16.5 26.8661ZM18.8166 18.5368C18.4831 18.6695 18.1961 18.9027 17.9931 19.206C17.7901 19.5092 17.6805 19.8685 17.6786 20.2368V21.0982C17.6786 21.2652 17.546 21.4018 17.3839 21.4018H15.6161C15.454 21.4018 15.3214 21.2652 15.3214 21.0982V20.2824C15.3214 19.4058 15.5682 18.5406 16.0544 17.8196C16.5295 17.1138 17.1924 16.575 17.9732 16.2676C19.2254 15.7705 20.0357 14.6891 20.0357 13.5089C20.0357 11.8355 18.4483 10.4732 16.5 10.4732C14.5517 10.4732 12.9643 11.8355 12.9643 13.5089V13.7973C12.9643 13.9643 12.8317 14.1009 12.6696 14.1009H10.9018C10.7397 14.1009 10.6071 13.9643 10.6071 13.7973V13.5089C10.6071 12.0176 11.2406 10.625 12.3897 9.58906C13.4946 8.59107 14.9531 8.04464 16.5 8.04464C18.0469 8.04464 19.5054 8.59487 20.6103 9.58906C21.7594 10.625 22.3929 12.0176 22.3929 13.5089C22.3929 15.7022 20.9896 17.6754 18.8166 18.5368Z" fill="black"/>
</svg>
