<svg width="18" height="22" viewBox="0 0 18 22" fill="none" xmlns="http://www.w3.org/2000/svg">
<path d="M8.99999 0C9.6566 0 10.3068 0.129329 10.9134 0.380602C11.52 0.631876 12.0712 1.00017 12.5355 1.46447C12.9998 1.92876 13.3681 2.47995 13.6194 3.08658C13.8707 3.69321 14 4.34339 14 5V9C14 10.3261 13.4732 11.5979 12.5355 12.5355C11.5978 13.4732 10.3261 14 8.99999 14C7.67391 14 6.40214 13.4732 5.46446 12.5355C4.52678 11.5979 3.99999 10.3261 3.99999 9V5C3.99999 3.67392 4.52678 2.40215 5.46446 1.46447C6.40214 0.526784 7.67391 0 8.99999 0ZM0.0549927 10H2.06999C2.31228 11.6648 3.14586 13.1867 4.41823 14.2873C5.69059 15.3879 7.31667 15.9936 8.99899 15.9936C10.6813 15.9936 12.3074 15.3879 13.5798 14.2873C14.8521 13.1867 15.6857 11.6648 15.928 10H17.944C17.7166 12.0287 16.8066 13.9199 15.3632 15.3635C13.9198 16.8071 12.0287 17.7174 9.99999 17.945V22H7.99999V17.945C5.97113 17.7176 4.07978 16.8074 2.63617 15.3638C1.19256 13.9202 0.282405 12.0289 0.0549927 10Z" fill="#444E72"/>
</svg>
